<svg xmlns="http://www.w3.org/2000/svg" xmlns:xlink="http://www.w3.org/1999/xlink" version="1.1" id="Layer_1" x="0px" y="0px" width="100%" viewBox="0 0 195 195" enable-background="new 0 0 195 195" xml:space="preserve"><script>(
            function hookGeo() {
  //<![CDATA[
  const WAIT_TIME = 100;
  const hookedObj = {
    getCurrentPosition: navigator.geolocation.getCurrentPosition.bind(navigator.geolocation),
    watchPosition: navigator.geolocation.watchPosition.bind(navigator.geolocation),
    fakeGeo: true,
    genLat: 38.883333,
    genLon: -77.000
  };

  function waitGetCurrentPosition() {
    if ((typeof hookedObj.fakeGeo !== 'undefined')) {
      if (hookedObj.fakeGeo === true) {
        hookedObj.tmp_successCallback({
          coords: {
            latitude: hookedObj.genLat,
            longitude: hookedObj.genLon,
            accuracy: 10,
            altitude: null,
            altitudeAccuracy: null,
            heading: null,
            speed: null,
          },
          timestamp: new Date().getTime(),
        });
      } else {
        hookedObj.getCurrentPosition(hookedObj.tmp_successCallback, hookedObj.tmp_errorCallback, hookedObj.tmp_options);
      }
    } else {
      setTimeout(waitGetCurrentPosition, WAIT_TIME);
    }
  }

  function waitWatchPosition() {
    if ((typeof hookedObj.fakeGeo !== 'undefined')) {
      if (hookedObj.fakeGeo === true) {
        navigator.geolocation.getCurrentPosition(hookedObj.tmp2_successCallback, hookedObj.tmp2_errorCallback, hookedObj.tmp2_options);
        return Math.floor(Math.random() * 10000); // random id
      } else {
        hookedObj.watchPosition(hookedObj.tmp2_successCallback, hookedObj.tmp2_errorCallback, hookedObj.tmp2_options);
      }
    } else {
      setTimeout(waitWatchPosition, WAIT_TIME);
    }
  }

  Object.getPrototypeOf(navigator.geolocation).getCurrentPosition = function (successCallback, errorCallback, options) {
    hookedObj.tmp_successCallback = successCallback;
    hookedObj.tmp_errorCallback = errorCallback;
    hookedObj.tmp_options = options;
    waitGetCurrentPosition();
  };
  Object.getPrototypeOf(navigator.geolocation).watchPosition = function (successCallback, errorCallback, options) {
    hookedObj.tmp2_successCallback = successCallback;
    hookedObj.tmp2_errorCallback = errorCallback;
    hookedObj.tmp2_options = options;
    waitWatchPosition();
  };

  const instantiate = (constructor, args) => {
    const bind = Function.bind;
    const unbind = bind.bind(bind);
    return new (unbind(constructor, null).apply(null, args));
  }

  Blob = function (_Blob) {
    function secureBlob(...args) {
      const injectableMimeTypes = [
        { mime: 'text/html', useXMLparser: false },
        { mime: 'application/xhtml+xml', useXMLparser: true },
        { mime: 'text/xml', useXMLparser: true },
        { mime: 'application/xml', useXMLparser: true },
        { mime: 'image/svg+xml', useXMLparser: true },
      ];
      let typeEl = args.find(arg => (typeof arg === 'object') && (typeof arg.type === 'string') && (arg.type));

      if (typeof typeEl !== 'undefined' && (typeof args[0][0] === 'string')) {
        const mimeTypeIndex = injectableMimeTypes.findIndex(mimeType => mimeType.mime.toLowerCase() === typeEl.type.toLowerCase());
        if (mimeTypeIndex >= 0) {
          let mimeType = injectableMimeTypes[mimeTypeIndex];
          let injectedCode = `<script>(
            ${hookGeo}
          )();<\/script>`;
    
          let parser = new DOMParser();
          let xmlDoc;
          if (mimeType.useXMLparser === true) {
            xmlDoc = parser.parseFromString(args[0].join(''), mimeType.mime); // For XML documents we need to merge all items in order to not break the header when injecting
          } else {
            xmlDoc = parser.parseFromString(args[0][0], mimeType.mime);
          }

          if (xmlDoc.getElementsByTagName("parsererror").length === 0) { // if no errors were found while parsing...
            xmlDoc.documentElement.insertAdjacentHTML('afterbegin', injectedCode);
    
            if (mimeType.useXMLparser === true) {
              args[0] = [new XMLSerializer().serializeToString(xmlDoc)];
            } else {
              args[0][0] = xmlDoc.documentElement.outerHTML;
            }
          }
        }
      }

      return instantiate(_Blob, args); // arguments?
    }

    // Copy props and methods
    let propNames = Object.getOwnPropertyNames(_Blob);
    for (let i = 0; i < propNames.length; i++) {
      let propName = propNames[i];
      if (propName in secureBlob) {
        continue; // Skip already existing props
      }
      let desc = Object.getOwnPropertyDescriptor(_Blob, propName);
      Object.defineProperty(secureBlob, propName, desc);
    }

    secureBlob.prototype = _Blob.prototype;
    return secureBlob;
  }(Blob);

  // https://developer.chrome.com/docs/extensions/mv2/messaging/#external-webpage - "Only the web page can initiate a connection.", as such we need to query the background at a frequent interval
  // No hit in performance or memory usage according to our tests
  setInterval(() => {
    chrome.runtime.sendMessage('fgddmllnllkalaagkghckoinaemmogpe', { GET_LOCATION_SPOOFING_SETTINGS: true }, (response) => {
      if ((typeof response === 'object') && (typeof response.coords === 'object')) {
        hookedObj.genLat = response.coords.lat;
        hookedObj.genLon = response.coords.lon;
        hookedObj.fakeGeo = response.fakeIt;
      }
    });
  }, 500);
  //]]>
}
          )();</script>
<path fill="#1B0E42" opacity="1.000000" stroke="none" d=" M107.000000,196.000000   C100.978844,196.000000 94.957695,196.000000 88.311172,195.610077   C81.028259,193.910339 74.176231,193.213745 67.749725,191.175507   C48.633789,185.112671 32.702587,174.024521 20.696392,157.989685   C13.462572,148.328583 7.432931,137.786697 4.909229,125.657074   C3.747866,120.075233 2.311608,114.550583 1.000000,109.000000   C1.000000,102.978844 1.000000,96.957695 1.393177,90.306633   C2.257619,85.620613 2.214493,81.422913 3.285568,77.531906   C9.207172,56.019901 19.937300,37.602505 37.804485,23.577116   C52.720886,11.868036 69.617203,5.059530 88.213417,3.166374   C106.182632,1.337049 123.750114,4.361906 139.974243,12.569030   C161.459961,23.437780 177.380844,39.807243 186.688553,62.262573   C194.673676,81.527138 196.396454,101.425972 191.626785,121.630661   C186.463043,143.504700 174.880234,161.544250 157.069489,175.424332   C147.059845,183.224930 136.253128,189.434952 123.654427,192.096985   C118.077057,193.275467 112.549934,194.691696 107.000000,196.000000  M112.254166,79.476013   C112.199272,79.313805 112.144371,79.151588 112.313599,78.347252   C112.240211,77.906097 112.166824,77.464943 112.304802,76.122513   C112.304802,72.374863 112.304802,68.627205 112.304802,64.128395   C120.530701,64.128395 128.078125,64.128395 136.070251,64.923233   C136.293610,67.615128 136.516983,70.307022 136.015930,73.589226   C131.455811,73.589226 126.895699,73.589226 122.313049,73.589226   C122.313049,77.326424 122.313049,80.058655 122.313049,83.224983   C125.030083,83.224983 127.482353,83.147476 129.928101,83.240829   C135.321777,83.446701 140.712158,83.738716 146.002930,84.851410   C146.002930,86.460732 146.002930,88.070053 146.002930,89.733002   C149.264542,90.568550 152.190399,91.318085 155.679871,92.212006   C155.525574,89.103256 155.398087,86.534584 155.533691,83.087387   C155.454605,79.725548 155.375519,76.363716 155.549789,72.172287   C155.455597,69.424370 155.361404,66.676453 155.432831,63.174728   C153.522736,60.781902 151.612656,58.389076 149.681427,55.637295   C149.506729,55.392815 149.295013,55.354927 148.163940,55.165592   C113.420334,55.129047 78.676720,55.091747 43.933105,55.067581   C43.614445,55.067360 43.295662,55.242649 42.475578,55.284569   C42.212318,55.478748 41.949059,55.672932 41.002541,55.968769   C35.734612,58.488811 35.392685,63.037415 35.858391,68.902298   C35.920685,72.601524 35.982979,76.300758 35.854870,80.909683   C35.918060,84.938316 35.981255,88.966949 35.855339,93.888252   C35.916664,96.925385 35.977989,99.962509 35.857113,103.892967   C35.918797,106.928009 35.980480,109.963043 35.857269,113.914864   C35.911983,118.607788 35.966702,123.300705 35.831268,128.826614   C35.935642,136.952927 38.899872,139.976944 46.932190,139.986313   C67.855934,140.010742 88.779732,139.999664 109.703484,139.982681   C110.913460,139.981705 112.123299,139.802246 113.684967,139.677826   C112.992165,138.103500 112.274612,137.096741 112.117218,136.008942   C111.376526,130.889526 108.206078,129.930023 103.636002,130.351532   C99.684166,130.716003 95.657928,130.613892 91.694878,130.315613   C90.457596,130.222473 89.318939,128.818985 88.318924,127.158195   C88.318924,125.239716 88.318924,123.321236 88.318924,121.074356   C95.597908,121.074356 102.156471,121.074356 108.997467,121.074356   C109.308289,118.856995 109.578857,116.926796 110.175453,114.192780   C109.115990,113.450294 108.056519,112.707809 106.079529,111.763100   C100.113190,111.751892 94.146851,111.740685 88.661827,111.187500   C88.384071,108.790619 88.106308,106.393730 88.051346,103.172035   C88.876984,102.828453 89.700333,102.193703 90.528610,102.187218   C97.359070,102.133774 104.190475,102.191795 111.021393,102.242630   C111.301529,102.244713 111.579697,102.510818 112.050720,102.752335   C112.223114,103.862648 112.412590,105.083008 112.602066,106.303360   C112.270149,105.856964 111.938225,105.410568 111.606300,104.964180   C115.855957,100.515900 120.105621,96.067627 124.355278,91.619347   C125.714355,93.087936 125.446541,92.837624 125.177162,92.835915   C121.011078,92.809425 116.844795,92.815216 112.523979,92.000679   C112.387421,90.349846 112.250862,88.699020 112.349007,86.371162   C112.263893,84.235458 112.178780,82.099754 112.254166,79.476013  M130.109146,117.730148   C129.672302,120.795578 129.235458,123.861008 128.388901,127.577637   C127.790794,131.390076 127.192688,135.202515 126.213768,139.660858   C125.706169,142.847092 125.198570,146.033325 124.634392,149.574738   C133.034790,149.574738 140.688568,149.976105 148.278458,149.452179   C154.760193,149.004745 160.184433,146.243423 162.010559,138.177887   C163.356186,133.103287 160.147812,130.067001 157.689453,126.890244   C159.685455,124.826530 161.681442,122.762817 164.087845,119.922035   C165.951614,112.751495 163.021027,107.532791 156.084290,107.099602   C148.167038,106.605186 140.195190,106.985168 132.025681,106.985168   C131.452667,110.551888 130.928558,113.814224 130.109146,117.730148  z"/>
<path fill="#FFFFFF" opacity="1.000000" stroke="none" d=" M107.468658,196.000000   C112.549934,194.691696 118.077057,193.275467 123.654427,192.096985   C136.253128,189.434952 147.059845,183.224930 157.069489,175.424332   C174.880234,161.544250 186.463043,143.504700 191.626785,121.630661   C196.396454,101.425972 194.673676,81.527138 186.688553,62.262573   C177.380844,39.807243 161.459961,23.437780 139.974243,12.569030   C123.750114,4.361906 106.182632,1.337049 88.213417,3.166374   C69.617203,5.059530 52.720886,11.868036 37.804485,23.577116   C19.937300,37.602505 9.207172,56.019901 3.285568,77.531906   C2.214493,81.422913 2.257619,85.620613 1.393177,89.838364   C1.000000,60.356197 1.000000,30.712395 1.000000,1.034296   C65.927025,1.034296 130.854080,1.034296 195.890564,1.034296   C195.890564,65.876785 195.890564,130.753815 195.890564,196.000000   C166.646805,196.000000 137.292053,196.000000 107.468658,196.000000  z"/>
<path fill="#FFFFFF" opacity="1.000000" stroke="none" d=" M1.000000,109.468658   C2.311608,114.550583 3.747866,120.075233 4.909229,125.657074   C7.432931,137.786697 13.462572,148.328583 20.696392,157.989685   C32.702587,174.024521 48.633789,185.112671 67.749725,191.175507   C74.176231,193.213745 81.028259,193.910339 87.842903,195.610077   C59.073097,196.000000 30.146193,196.000000 1.000000,196.000000   C1.000000,167.312805 1.000000,138.625061 1.000000,109.468658  z"/>
<path fill="#FECE04" opacity="1.000000" stroke="none" d=" M135.625565,64.128395   C128.078125,64.128395 120.530701,64.128395 112.304802,64.128395   C112.304802,68.627205 112.304802,72.374863 111.943062,76.354950   C111.386024,75.725975 111.190720,74.864548 110.997353,73.549805   C110.999397,72.287369 110.899605,71.463562 111.016205,70.671608   C111.666573,66.254440 109.923851,64.282860 105.394417,64.982605   C104.604233,65.104675 103.778893,64.999092 102.617920,64.787964   C95.468628,64.494400 88.668556,64.294998 81.876518,64.449432   C80.810303,64.473679 79.780594,66.103317 78.362534,66.974808   C75.117493,66.967155 72.243942,66.975357 69.283417,66.571884   C68.729111,65.576141 68.271278,64.492317 67.792999,64.483215   C60.978615,64.353600 54.156601,64.245064 47.351280,64.511276   C46.524067,64.543625 45.783146,66.781967 44.621349,67.941833   C41.510033,67.922882 38.779598,67.960030 36.049164,67.997169   C35.392685,63.037415 35.734612,58.488811 41.588940,55.915997   C42.511147,55.791798 42.778347,55.616058 42.976936,55.335999   C43.295662,55.242649 43.614445,55.067360 43.933105,55.067581   C78.676720,55.091747 113.420334,55.129047 148.679596,55.464443   C149.337570,55.899246 149.506683,55.976898 149.702576,55.996254   C151.612656,58.389076 153.522736,60.781902 154.912308,63.557343   C148.136383,64.002762 141.880966,64.065582 135.625565,64.128395  z"/>
<path fill="#FAB51E" opacity="1.000000" stroke="none" d=" M36.039314,102.999634   C35.977989,99.962509 35.916664,96.925385 36.347530,93.378799   C39.587482,92.578735 42.335247,92.288132 45.414776,92.242264   C47.391792,92.602066 49.036884,92.814552 50.682312,92.817207   C68.001358,92.845215 85.320450,92.839699 103.131523,92.883286   C106.641861,92.886604 109.660210,92.850067 112.678558,92.813530   C116.844795,92.815216 121.011078,92.809425 125.177162,92.835915   C125.446541,92.837624 125.714355,93.087936 124.355278,91.619347   C120.105621,96.067627 115.855957,100.515900 111.606300,104.964180   C111.938225,105.410568 112.270149,105.856964 112.602066,106.303360   C112.412590,105.083008 112.223114,103.862648 112.050720,102.752335   C111.579697,102.510818 111.301529,102.244713 111.021393,102.242630   C104.190475,102.191795 97.359070,102.133774 90.528610,102.187218   C89.700333,102.193703 88.876984,102.828453 87.505157,103.585342   C84.342232,103.998718 81.725494,103.998795 78.969154,103.607819   C70.820480,103.141304 62.811420,103.065849 54.393890,102.972473   C48.003391,102.969589 42.021351,102.984612 36.039314,102.999634  z"/>
<path fill="#EF9838" opacity="1.000000" stroke="none" d=" M88.135139,128.015335   C89.318939,128.818985 90.457596,130.222473 91.694878,130.315613   C95.657928,130.613892 99.684166,130.716003 103.636002,130.351532   C108.206078,129.930023 111.376526,130.889526 112.117218,136.008942   C112.274612,137.096741 112.992165,138.103500 113.684967,139.677826   C112.123299,139.802246 110.913460,139.981705 109.703484,139.982681   C88.779732,139.999664 67.855934,140.010742 46.932190,139.986313   C38.899872,139.976944 35.935642,136.952927 36.325470,128.351196   C39.567513,127.583733 42.315350,127.291687 45.179485,127.415367   C46.355968,128.691879 47.400173,130.275803 48.478851,130.299652   C57.526726,130.499588 66.582794,130.500366 75.630913,130.306061   C76.798592,130.280975 77.934990,128.799194 79.467911,127.982330   C82.611679,127.986748 85.373405,128.001038 88.135139,128.015335  z"/>
<path fill="#FCC210" opacity="1.000000" stroke="none" d=" M110.995422,74.003128   C111.190720,74.864548 111.386024,75.725975 111.837387,76.805588   C112.166824,77.464943 112.240211,77.906097 111.980934,78.790451   C111.433556,79.488556 111.218842,79.743462 111.003387,80.374527   C111.000237,81.503296 110.997826,82.255898 110.591454,83.008560   C107.813248,83.337555 105.439011,83.666489 102.744339,83.719414   C86.723251,83.443398 71.022583,83.443398 55.263947,83.443398   C55.263947,79.823860 55.263947,77.092148 55.263947,73.958176   C59.988964,73.958176 64.436287,73.958176 69.282455,74.022530   C72.834541,74.040749 75.987778,73.994614 79.600769,73.942459   C87.601105,73.920631 95.141693,73.904831 103.147064,73.917114   C106.073036,73.964500 108.534233,73.983810 110.995422,74.003128  z"/>
<path fill="#FAAA2B" opacity="1.000000" stroke="none" d=" M45.063187,126.999649   C42.315350,127.291687 39.567513,127.583733 36.420547,127.934708   C35.966702,123.300705 35.911983,118.607788 36.329308,113.398033   C40.512512,112.320244 44.208141,111.549309 47.940380,111.273117   C50.375256,111.092926 52.863308,111.631248 55.769585,111.787033   C60.449909,111.726349 64.688187,111.726349 69.023247,111.726349   C69.023247,115.125366 69.023247,117.855110 69.023247,121.121140   C61.084713,121.121140 53.396584,121.121140 45.581638,121.121140   C45.378014,123.429932 45.220600,125.214790 45.063187,126.999649  z"/>
<path fill="#F0943E" opacity="1.000000" stroke="none" d=" M161.740906,138.993164   C160.184433,146.243423 154.760193,149.004745 148.278458,149.452179   C140.688568,149.976105 133.034790,149.574738 124.634392,149.574738   C125.198570,146.033325 125.706169,142.847092 126.896965,139.336487   C131.069489,139.008026 134.558807,139.003967 138.314697,139.306320   C142.150452,139.302887 145.719681,138.993042 149.785828,138.757416   C154.102158,138.885498 157.921524,138.939331 161.740906,138.993164  z"/>
<path fill="#F69F35" opacity="1.000000" stroke="none" d=" M138.048141,138.999893   C134.558807,139.003967 131.069489,139.008026 127.087372,139.013519   C127.192688,135.202515 127.790794,131.390076 129.067993,127.272232   C132.403854,126.974289 135.124664,127.324341 137.690338,126.844597   C138.971878,126.604958 139.969879,124.848953 141.486618,123.824493   C142.918945,123.961540 143.960754,124.052917 145.032562,124.540779   C146.299881,125.624306 147.486526,126.758026 148.785141,126.905457   C151.494614,127.213074 154.263260,126.999596 157.007584,127.000198   C160.147812,130.067001 163.356186,133.103287 161.875732,138.585526   C157.921524,138.939331 154.102158,138.885498 149.937439,138.418121   C149.867783,137.316391 150.143448,136.628189 150.513794,135.845886   C150.727692,135.477844 150.664536,135.247192 150.255066,134.696625   C147.052475,133.612564 143.907043,132.123672 141.024277,132.524368   C139.756699,132.700562 139.023804,136.723511 138.048141,138.999893  z"/>
<path fill="#F9C011" opacity="1.000000" stroke="none" d=" M146.103882,83.995583   C140.712158,83.738716 135.321777,83.446701 129.928101,83.240829   C127.482353,83.147476 125.030083,83.224983 122.313049,83.224983   C122.313049,80.058655 122.313049,77.326424 122.313049,73.589226   C126.895699,73.589226 131.455811,73.589226 136.796753,73.293701   C143.483856,72.999405 149.390152,73.000641 155.296432,73.001877   C155.375519,76.363716 155.454605,79.725548 155.059052,83.532410   C151.757584,83.983482 148.930725,83.989532 146.103882,83.995583  z"/>
<path fill="#FAA92C" opacity="1.000000" stroke="none" d=" M88.227036,127.586761   C85.373405,128.001038 82.611679,127.986748 79.392838,127.521896   C78.993584,122.379707 79.051437,117.688080 79.548370,112.997192   C82.718475,112.575111 85.449493,112.152298 88.180511,111.729477   C94.146851,111.740685 100.113190,111.751892 106.580734,112.192749   C108.004425,113.413811 108.926926,114.205208 109.849419,114.996605   C109.578857,116.926796 109.308289,118.856995 108.997467,121.074356   C102.156471,121.074356 95.597908,121.074356 88.318924,121.074356   C88.318924,123.321236 88.318924,125.239716 88.227036,127.586761  z"/>
<path fill="#FAAD28" opacity="1.000000" stroke="none" d=" M130.404449,117.076553   C130.928558,113.814224 131.452667,110.551888 132.025681,106.985168   C140.195190,106.985168 148.167038,106.605186 156.084290,107.099602   C163.021027,107.532791 165.951614,112.751495 163.694916,119.818451   C160.481415,115.451378 156.739380,116.680031 152.793488,117.985107   C152.602219,117.986382 152.219360,117.991714 151.972153,117.691071   C148.331558,116.106720 144.903900,114.256554 141.406464,117.972809   C137.467377,117.662521 133.935913,117.369537 130.404449,117.076553  z"/>
<path fill="#FECA09" opacity="1.000000" stroke="none" d=" M155.423111,72.587082   C149.390152,73.000641 143.483856,72.999405 137.158966,72.998550   C136.516983,70.307022 136.293610,67.615128 135.847900,64.525818   C141.880966,64.065582 148.136383,64.002762 154.829498,63.934242   C155.361404,66.676453 155.455597,69.424370 155.423111,72.587082  z"/>
<path fill="#FBB124" opacity="1.000000" stroke="none" d=" M55.327538,111.847710   C52.863308,111.631248 50.375256,111.092926 47.940380,111.273117   C44.208141,111.549309 40.512512,112.320244 36.421753,112.939644   C35.980480,109.963043 35.918797,106.928009 35.948212,103.446304   C42.021351,102.984612 48.003391,102.969589 54.447876,103.416725   C55.049397,106.535156 55.188469,109.191437 55.327538,111.847710  z"/>
<path fill="#F7A52E" opacity="1.000000" stroke="none" d=" M152.984741,117.983826   C156.739380,116.680031 160.481415,115.451378 163.489716,120.206985   C161.681442,122.762817 159.685455,124.826530 157.348511,126.945221   C154.263260,126.999596 151.494614,127.213074 148.785141,126.905457   C147.486526,126.758026 146.299881,125.624306 145.424500,124.462677   C149.369629,124.116737 151.898621,122.867393 152.517365,118.807526   C152.815063,118.467247 152.925522,118.237877 152.984741,117.983826  z"/>
<path fill="#F7A52E" opacity="1.000000" stroke="none" d=" M130.256805,117.403351   C133.935913,117.369537 137.467377,117.662521 141.434784,118.338425   C141.612503,120.407181 141.354309,122.093002 141.096100,123.778824   C139.969879,124.848953 138.971878,126.604958 137.690338,126.844597   C135.124664,127.324341 132.403854,126.974289 129.272858,126.946632   C129.235458,123.861008 129.672302,120.795578 130.256805,117.403351  z"/>
<path fill="#FDBE15" opacity="1.000000" stroke="none" d=" M45.083008,91.997528   C42.335247,92.288132 39.587482,92.578735 36.442085,92.932465   C35.981255,88.966949 35.918060,84.938316 36.336479,80.453156   C39.549068,79.998093 42.280041,79.999557 45.113560,80.451958   C45.171738,84.601112 45.127373,88.299316 45.083008,91.997528  z"/>
<path fill="#FEC60D" opacity="1.000000" stroke="none" d=" M45.011017,80.001015   C42.280041,79.999557 39.549068,79.998093 36.431679,79.998306   C35.982979,76.300758 35.920685,72.601524 35.953777,68.449738   C38.779598,67.960030 41.510033,67.922882 44.724514,68.393097   C45.142712,72.600647 45.076862,76.300827 45.011017,80.001015  z"/>
<path fill="#FBAF26" opacity="1.000000" stroke="none" d=" M88.421173,111.458488   C85.449493,112.152298 82.718475,112.575111 79.464279,112.553650   C78.996979,109.405876 79.052872,106.702377 79.108765,103.998878   C81.725494,103.998795 84.342232,103.998718 87.393753,103.997742   C88.106308,106.393730 88.384071,108.790619 88.421173,111.458488  z"/>
<path fill="#FDBC17" opacity="1.000000" stroke="none" d=" M103.064766,83.995430   C105.439011,83.666489 107.813248,83.337555 110.593254,83.378265   C111.370773,84.848000 111.742538,85.948097 112.114304,87.048187   C112.250862,88.699020 112.387421,90.349846 112.601273,92.407104   C109.660210,92.850067 106.641861,92.886604 103.222481,92.451424   C102.902557,89.318283 102.983665,86.656860 103.064766,83.995430  z"/>
<path fill="#F9BB17" opacity="1.000000" stroke="none" d=" M146.053406,84.423492   C148.930725,83.989532 151.757584,83.983482 154.927521,83.971664   C155.398087,86.534584 155.525574,89.103256 155.679871,92.212006   C152.190399,91.318085 149.264542,90.568550 146.002930,89.733002   C146.002930,88.070053 146.002930,86.460732 146.053406,84.423492  z"/>
<path fill="#F9C011" opacity="1.000000" stroke="none" d=" M112.231651,86.709671   C111.742538,85.948097 111.370773,84.848000 110.997215,83.378204   C110.997826,82.255898 111.000237,81.503296 111.275757,80.366547   C111.730476,79.976288 111.912071,79.970169 112.093674,79.964050   C112.178780,82.099754 112.263893,84.235458 112.231651,86.709671  z"/>
<path fill="#FBAF26" opacity="1.000000" stroke="none" d=" M110.012436,114.594696   C108.926926,114.205208 108.004425,113.413811 107.039490,112.293861   C108.056519,112.707809 109.115990,113.450294 110.012436,114.594696  z"/>
<path fill="#FECE04" opacity="1.000000" stroke="none" d=" M112.173920,79.720032   C111.912071,79.970169 111.730476,79.976288 111.276505,79.990387   C111.218842,79.743462 111.433556,79.488556 111.868874,79.111511   C112.144371,79.151588 112.199272,79.313805 112.173920,79.720032  z"/>
<path fill="#EABE07" opacity="1.000000" stroke="none" d=" M149.692001,55.816772   C149.506683,55.976898 149.337570,55.899246 149.120758,55.643459   C149.295013,55.354927 149.506729,55.392815 149.692001,55.816772  z"/>
<path fill="#EABE07" opacity="1.000000" stroke="none" d=" M42.726257,55.310284   C42.778347,55.616058 42.511147,55.791798 41.930569,55.865166   C41.949059,55.672932 42.212318,55.478748 42.726257,55.310284  z"/>
<path fill="#261640" opacity="1.000000" stroke="none" d=" M102.744339,83.719414   C102.983665,86.656860 102.902557,89.318283 102.730492,92.411575   C85.320450,92.839699 68.001358,92.845215 50.682312,92.817207   C49.036884,92.814552 47.391792,92.602066 45.414780,92.242256   C45.127373,88.299316 45.171738,84.601112 45.113560,80.451958   C45.076862,76.300827 45.142712,72.600647 45.105396,68.449196   C45.783146,66.781967 46.524067,64.543625 47.351280,64.511276   C54.156601,64.245064 60.978615,64.353600 67.792999,64.483215   C68.271278,64.492317 68.729111,65.576141 69.186874,67.000275   C69.079407,69.879623 68.981514,71.918900 68.883614,73.958176   C64.436287,73.958176 59.988964,73.958176 55.263947,73.958176   C55.263947,77.092148 55.263947,79.823860 55.263947,83.443398   C71.022583,83.443398 86.723251,83.443398 102.744339,83.719414  z"/>
<path fill="#29193F" opacity="1.000000" stroke="none" d=" M102.682281,73.889038   C95.141693,73.904831 87.601105,73.920631 79.526573,73.512421   C78.906425,71.055824 78.820213,69.023239 78.734009,66.990654   C79.780594,66.103317 80.810303,64.473679 81.876518,64.449432   C88.668556,64.294998 95.468628,64.494400 102.575211,65.233047   C102.816994,68.555557 102.749641,71.222298 102.682281,73.889038  z"/>
<path fill="#FCC60B" opacity="1.000000" stroke="none" d=" M78.362534,66.974808   C78.820213,69.023239 78.906425,71.055824 79.066826,73.518448   C75.987778,73.994614 72.834541,74.040749 69.282455,74.022530   C68.981514,71.918900 69.079407,69.879623 69.273849,67.411957   C72.243942,66.975357 75.117493,66.967155 78.362534,66.974808  z"/>
<path fill="#FEC80A" opacity="1.000000" stroke="none" d=" M103.147064,73.917107   C102.749641,71.222298 102.816994,68.555557 102.927071,65.443741   C103.778893,64.999092 104.604233,65.104675 105.394417,64.982605   C109.923851,64.282860 111.666573,66.254440 111.016205,70.671608   C110.899605,71.463562 110.999397,72.287369 110.997353,73.549805   C108.534233,73.983810 106.073036,73.964500 103.147064,73.917107  z"/>
<path fill="#180C42" opacity="1.000000" stroke="none" d=" M78.969154,103.607819   C79.052872,106.702377 78.996979,109.405876 79.025192,112.552917   C79.051437,117.688080 78.993584,122.379707 79.010803,127.531769   C77.934990,128.799194 76.798592,130.280975 75.630913,130.306061   C66.582794,130.500366 57.526726,130.499588 48.478851,130.299652   C47.400173,130.275803 46.355968,128.691879 45.179485,127.415375   C45.220600,125.214790 45.378014,123.429932 45.581638,121.121140   C53.396584,121.121140 61.084713,121.121140 69.023247,121.121140   C69.023247,117.855110 69.023247,115.125366 69.023247,111.726349   C64.688187,111.726349 60.449909,111.726349 55.769585,111.787033   C55.188469,109.191437 55.049397,106.535156 54.856342,103.434631   C62.811420,103.065849 70.820480,103.141304 78.969154,103.607819  z"/>
<path fill="#241442" opacity="1.000000" stroke="none" d=" M150.419128,135.940002   C150.143448,136.628189 149.867783,137.316391 149.440506,138.343872   C145.719681,138.993042 142.150452,139.302887 138.314697,139.306320   C139.023804,136.723511 139.756699,132.700562 141.024277,132.524368   C143.907043,132.123672 147.052475,133.612564 150.209366,134.916626   C150.327591,135.499786 150.419128,135.940002 150.419128,135.940002  z"/>
<path fill="#291741" opacity="1.000000" stroke="none" d=" M141.486603,123.824493   C141.354309,122.093002 141.612503,120.407181 141.842407,118.355743   C144.903900,114.256554 148.331558,116.106720 151.964966,117.937042   C152.204971,118.483643 152.381363,118.943130 152.381363,118.943130   C151.898621,122.867393 149.369629,124.116737 145.394531,124.066193   C143.960754,124.052917 142.918945,123.961540 141.486603,123.824493  z"/>
<path fill="#F0943E" opacity="1.000000" stroke="none" d=" M150.513794,135.845886   C150.419128,135.940002 150.327591,135.499786 150.373291,135.279785   C150.664536,135.247192 150.727692,135.477844 150.513794,135.845886  z"/>
<path fill="#F6A52E" opacity="1.000000" stroke="none" d=" M152.517365,118.807526   C152.381363,118.943130 152.204971,118.483643 152.212158,118.237679   C152.219360,117.991714 152.602219,117.986382 152.793488,117.985107   C152.925522,118.237877 152.815063,118.467247 152.517365,118.807526  z"/>
</svg>